<?xml version="1.0" encoding="UTF-8"?><svg id="Layer_2" xmlns="http://www.w3.org/2000/svg" xmlns:xlink="http://www.w3.org/1999/xlink" viewBox="0 0 2500 1200"><defs><linearGradient id="linear-gradient" x1="682.44067" y1="141.02295" x2="1817.55933" y2="141.02295" gradientUnits="userSpaceOnUse"><stop offset="0" stop-color="#2033bd"/><stop offset=".36107" stop-color="#2232bb"/><stop offset=".51452" stop-color="#2931b4"/><stop offset=".62856" stop-color="#3530a9"/><stop offset=".72314" stop-color="#472e9a"/><stop offset=".80566" stop-color="#5e2b86"/><stop offset=".87971" stop-color="#7a286d"/><stop offset=".94595" stop-color="#9b2450"/><stop offset="1" stop-color="#bd2033"/></linearGradient><linearGradient id="linear-gradient-2" x1="682.44061" y1="1058.97705" x2="1817.55933" y2="1058.97705" gradientUnits="userSpaceOnUse"><stop offset="0" stop-color="#2033bd"/><stop offset=".05405" stop-color="#412e9f"/><stop offset=".12029" stop-color="#622a82"/><stop offset=".19434" stop-color="#7e2769"/><stop offset=".27686" stop-color="#952455"/><stop offset=".37144" stop-color="#a72246"/><stop offset=".48548" stop-color="#b3213b"/><stop offset=".63893" stop-color="#ba2034"/><stop offset="1" stop-color="#bd2033"/></linearGradient></defs><g id="Faux_Edges"><path d="M500,300c90.68933,0,171.97797,40.24255,226.98816,103.84253,46.44739-54.92273,111.79553-101.79279,190.16248-136.69196C988.87817,106.08453,1111.17749,0,1250,0c-334.10498,0-625.68713,121.36987-780.961,301.58179,10.17853-1.04358,20.50684-1.58179,30.961-1.58179Z" style="fill:#2033bd;"/><path d="M1582.84937,267.15057c78.36694,34.89917,143.71509,81.76923,190.16248,136.69196,55.01013-63.59998,136.29871-103.84253,226.98816-103.84253,10.4541,0,20.78247.53821,30.96094,1.58179C1875.68701,121.36987,1584.10498,0,1250,0c138.82251,0,261.12183,106.08453,332.84937,267.15057Z" style="fill:#bd2033;"/><path d="M2000,900c-90.68945,0-171.97803-40.24255-226.98816-103.84253-46.44739,54.92273-111.79553,101.79272-190.16248,136.69189-71.72754,161.06616-194.02686,267.15063-332.84937,267.15063,334.10498,0,625.68701-121.36987,780.96094-301.58179-10.17847,1.04358-20.50684,1.58179-30.96094,1.58179Z" style="fill:#bd2033;"/><path d="M917.15063,932.84937c-78.36694-34.89917-143.71509-81.76917-190.16248-136.69189-55.01019,63.59998-136.29883,103.84253-226.98816,103.84253-10.45416,0-20.78247-.53821-30.961-1.58179,155.27386,180.21191,446.85602,301.58179,780.961,301.58179-138.82251,0-261.12183-106.08447-332.84937-267.15063Z" style="fill:#2033bd;"/></g><g id="Edges"><path d="M885.89966,282.0459c100.97266-51.46814,227.1792-82.0459,364.10034-82.0459s263.12769,30.57776,364.10034,82.0459c53.70667-65.10883,123.57373-116.38947,203.45898-147.71149C1662.71069,50.35138,1465.1792,0,1250,0s-412.71069,50.35138-567.55933,134.33441c79.88531,31.32202,149.75232,82.60266,203.45898,147.71149Z" style="fill:url(#linear-gradient);"/><path d="M1614.10034,917.9541c-100.97278,51.46814-227.1792,82.0459-364.10034,82.0459s-263.12756-30.57776-364.10034-82.0459c-53.70679,65.10889-123.57367,116.3894-203.45905,147.71143,154.84857,83.98315,352.38019,134.33447,567.55939,134.33447s412.71082-50.35132,567.55933-134.33447c-79.88525-31.32202-149.7522-82.60254-203.45898-147.71143Z" style="fill:url(#linear-gradient-2);"/></g><g id="Nodes"><path d="M500,100C223.8576,100,0,323.8576,0,600s223.8576,500,500,500,500-223.85767,500-500S776.14233,100,500,100ZM500,900c-165.68542,0-300-134.31458-300-300s134.31458-300,300-300,300,134.31458,300,300-134.31458,300-300,300Z" style="fill:#2033bd;"/><path d="M2000,100c-276.14233,0-500,223.8576-500,500s223.85767,500,500,500,500-223.85767,500-500-223.85767-500-500-500ZM2000,900c-165.68555,0-300-134.31458-300-300s134.31445-300,300-300,300,134.31458,300,300-134.31445,300-300,300Z" style="fill:#bd2033;"/></g></svg>